<?xml version="1.0" encoding="UTF-8" standalone="no"?>
<!-- Created with Inkscape (http://www.inkscape.org/) -->

<svg
   xmlns:osb="http://www.openswatchbook.org/uri/2009/osb"
   xmlns:dc="http://purl.org/dc/elements/1.1/"
   xmlns:cc="http://creativecommons.org/ns#"
   xmlns:rdf="http://www.w3.org/1999/02/22-rdf-syntax-ns#"
   xmlns:svg="http://www.w3.org/2000/svg"
   xmlns="http://www.w3.org/2000/svg"
   xmlns:xlink="http://www.w3.org/1999/xlink"
   xmlns:sodipodi="http://sodipodi.sourceforge.net/DTD/sodipodi-0.dtd"
   xmlns:inkscape="http://www.inkscape.org/namespaces/inkscape"
   width="210mm"
   height="297mm"
   viewBox="0 0 744.09448819 1052.3622047"
   id="svg2"
   version="1.1"
   inkscape:version="0.91 r13725"
   sodipodi:docname="islands.svg">
  <defs
     id="defs4">
    <linearGradient
       id="linearGradient9442"
       osb:paint="solid">
      <stop
         style="stop-color:#000000;stop-opacity:1;"
         offset="0"
         id="stop9444" />
    </linearGradient>
    <linearGradient
       inkscape:collect="always"
       id="linearGradient9436">
      <stop
         style="stop-color:#1f0eff;stop-opacity:1"
         offset="0"
         id="stop9438" />
      <stop
         style="stop-color:#881eae;stop-opacity:1"
         offset="1"
         id="stop9440" />
    </linearGradient>
    <linearGradient
       id="linearGradient9394"
       inkscape:collect="always">
      <stop
         id="stop9396"
         offset="0"
         style="stop-color:#1f0eff;stop-opacity:1;" />
      <stop
         id="stop9398"
         offset="1"
         style="stop-color:#b0ab03;stop-opacity:1" />
    </linearGradient>
    <linearGradient
       inkscape:collect="always"
       id="linearGradient9386">
      <stop
         style="stop-color:#3a743a;stop-opacity:1"
         offset="0"
         id="stop9388" />
      <stop
         style="stop-color:#25fa3a;stop-opacity:1"
         offset="1"
         id="stop9390" />
    </linearGradient>
    <linearGradient
       inkscape:collect="always"
       id="linearGradient9362">
      <stop
         style="stop-color:#ffdd55;stop-opacity:1;"
         offset="0"
         id="stop9364" />
      <stop
         style="stop-color:#e60000;stop-opacity:1"
         offset="1"
         id="stop9366" />
    </linearGradient>
    <linearGradient
       inkscape:collect="always"
       id="linearGradient9354">
      <stop
         style="stop-color:#008000;stop-opacity:1;"
         offset="0"
         id="stop9356" />
      <stop
         style="stop-color:#5bb4e2;stop-opacity:1"
         offset="1"
         id="stop9358" />
    </linearGradient>
    <inkscape:path-effect
       effect="powerstroke"
       id="path-effect4212"
       is_visible="true"
       offset_points="0,0.5"
       sort_points="true"
       interpolator_type="CubicBezierJohan"
       interpolator_beta="0.20731707"
       start_linecap_type="zerowidth"
       linejoin_type="round"
       miter_limit="4"
       end_linecap_type="zerowidth"
       cusp_linecap_type="round" />
    <inkscape:path-effect
       effect="powerstroke"
       id="path-effect4208"
       is_visible="true"
       offset_points="0,0.5"
       sort_points="true"
       interpolator_type="CubicBezierJohan"
       interpolator_beta="0.2"
       start_linecap_type="zerowidth"
       linejoin_type="round"
       miter_limit="4"
       end_linecap_type="zerowidth"
       cusp_linecap_type="round" />
    <inkscape:path-effect
       effect="powerstroke"
       id="path-effect4204"
       is_visible="true"
       offset_points="0,0.5"
       sort_points="true"
       interpolator_type="CubicBezierJohan"
       interpolator_beta="0.2"
       start_linecap_type="zerowidth"
       linejoin_type="round"
       miter_limit="4"
       end_linecap_type="zerowidth"
       cusp_linecap_type="round" />
    <inkscape:path-effect
       effect="powerstroke"
       id="path-effect4199"
       is_visible="true"
       offset_points="0,0.5"
       sort_points="true"
       interpolator_type="CubicBezierJohan"
       interpolator_beta="0.2"
       start_linecap_type="zerowidth"
       linejoin_type="round"
       miter_limit="4"
       end_linecap_type="zerowidth"
       cusp_linecap_type="round" />
    <inkscape:path-effect
       effect="powerstroke"
       id="path-effect4194"
       is_visible="true"
       offset_points="0,0.5"
       sort_points="true"
       interpolator_type="CubicBezierJohan"
       interpolator_beta="0.2"
       start_linecap_type="zerowidth"
       linejoin_type="round"
       miter_limit="4"
       end_linecap_type="zerowidth"
       cusp_linecap_type="round" />
    <inkscape:path-effect
       effect="powerstroke"
       id="path-effect3380"
       is_visible="true"
       offset_points="0,1.9543899"
       sort_points="true"
       interpolator_type="CubicBezierJohan"
       interpolator_beta="0.2"
       start_linecap_type="zerowidth"
       linejoin_type="round"
       miter_limit="4"
       end_linecap_type="zerowidth"
       cusp_linecap_type="round" />
    <linearGradient
       inkscape:collect="always"
       xlink:href="#linearGradient9394"
       id="linearGradient7870"
       x1="557.41638"
       y1="787.91931"
       x2="692.62299"
       y2="1044.498"
       gradientUnits="userSpaceOnUse"
       spreadMethod="pad" />
    <linearGradient
       inkscape:collect="always"
       xlink:href="#linearGradient9354"
       id="linearGradient9360"
       x1="-663.39972"
       y1="571.53625"
       x2="-522.25006"
       y2="327.07932"
       gradientUnits="userSpaceOnUse" />
    <linearGradient
       inkscape:collect="always"
       xlink:href="#linearGradient9362"
       id="linearGradient9368"
       x1="-301.57733"
       y1="159.78111"
       x2="-283.07806"
       y2="-151.34587"
       gradientUnits="userSpaceOnUse" />
    <linearGradient
       inkscape:collect="always"
       xlink:href="#linearGradient9386"
       id="linearGradient9392"
       x1="-606.50073"
       y1="504.86209"
       x2="-743.9458"
       y2="862.45612"
       gradientUnits="userSpaceOnUse" />
    <linearGradient
       inkscape:collect="always"
       xlink:href="#linearGradient9436"
       id="linearGradient9434"
       x1="-156.02562"
       y1="746.05493"
       x2="-211.71898"
       y2="518.77063"
       gradientUnits="userSpaceOnUse" />
    <linearGradient
       inkscape:collect="always"
       xlink:href="#linearGradient9442"
       id="linearGradient9446"
       x1="-381.2172"
       y1="577.77988"
       x2="-78.704932"
       y2="577.77988"
       gradientUnits="userSpaceOnUse" />
  </defs>
  <sodipodi:namedview
     id="base"
     pagecolor="#ffffff"
     bordercolor="#666666"
     borderopacity="1.0"
     inkscape:pageopacity="0.0"
     inkscape:pageshadow="2"
     inkscape:zoom="1.979899"
     inkscape:cx="-233.23102"
     inkscape:cy="462.44418"
     inkscape:document-units="px"
     inkscape:current-layer="layer1"
     showgrid="false"
     inkscape:window-width="1920"
     inkscape:window-height="1017"
     inkscape:window-x="-8"
     inkscape:window-y="-8"
     inkscape:window-maximized="1" />
  <metadata
     id="metadata7">
    <rdf:RDF>
      <cc:Work
         rdf:about="">
        <dc:format>image/svg+xml</dc:format>
        <dc:type
           rdf:resource="http://purl.org/dc/dcmitype/StillImage" />
        <dc:title></dc:title>
      </cc:Work>
    </rdf:RDF>
  </metadata>
  <g
     inkscape:label="Layer 1"
     inkscape:groupmode="layer"
     id="layer1">
    <path
       style="fill:#000000;fill-rule:evenodd;stroke:none;stroke-width:1px;stroke-linecap:butt;stroke-linejoin:miter;stroke-opacity:1"
       d="m 462.71347,584.98397 21.13692,6.34108 2.03142,10.83424 -17.50339,14.00272 -139.84767,11.41614 c -0.097,0.008 -0.18952,0.0439 -0.26633,0.10369 l -19.11961,14.87081 -31.22011,-4.25729 c -0.0908,-0.0124 -0.18332,4.6e-4 -0.26735,0.0371 l -27.69259,12.07112 -14.03836,-4.01095 44.43786,-47.25931 c 0.0596,-0.0634 0.10163,-0.14122 0.12193,-0.22582 l 4.19506,-17.47944 49.6116,-0.70873 c 0.0991,-10e-4 0.19544,-0.0322 0.27696,-0.0885 l 30,-20.71429 c 0.42699,-0.29483 0.17772,-0.9646 -0.33813,-0.90852 l -32.72897,3.5575 -30.59535,-12.80736 c -0.0911,-0.0381 -0.19152,-0.0485 -0.2885,-0.0296 l -25.3476,4.9287 -8.90644,-17.1278 33.91253,-22.60835 c 0.13665,-0.0911 0.21984,-0.24351 0.22258,-0.40774 l 0.71429,-42.8571 c 0.003,-0.17011 -0.081,-0.32999 -0.22258,-0.42436 l -10.51402,-7.00934 -2.06683,-24.113 27.93159,4.88803 c 0.0409,0.007 0.0825,0.009 0.12382,0.006 l 37.85706,-2.85713 c 0.22061,-0.0167 0.40406,-0.17624 0.45104,-0.39238 l 7.14286,-32.85714 c 0.0283,-0.13008 0.004,-0.26609 -0.0688,-0.37791 L 338.5396,372.49653 354.47669,361.40986 377.22,357.85621 c 0.1047,-0.0164 0.2015,-0.0655 0.27641,-0.14046 l 15.71428,-15.71428 c 0.10359,-0.10359 0.15654,-0.24739 0.14486,-0.39342 l -1.42079,-17.75981 4.01417,-12.7115 16.44028,15.75528 10.68821,68.40452 c 0.0267,0.17122 0.14028,0.31639 0.30003,0.38365 l 26.93267,11.34007 13.49013,41.18042 7.82675,41.9798 -5.67067,16.30315 c -0.11007,0.31645 0.11611,0.64949 0.45083,0.66383 l 49.67129,2.12877 11.21423,29.43735 -21.8915,29.65946 -42.71617,15.66258 z m 0.3158,-0.009 42.85715,-15.71428 c 0.092,-0.0337 0.17199,-0.0937 0.23016,-0.17251 l 22.14285,-30 c 0.10109,-0.13693 0.12558,-0.31588 0.065,-0.47493 l -11.42857,-30 c -0.81741,0.66298 -22.38929,-1.02556 -22.58869,-1.03583 l -27.18543,-1.39978 5.49342,-15.79356 c 0.0286,-0.0822 0.0352,-0.17037 0.0193,-0.2559 l -7.85715,-42.14286 c -0.004,-0.0217 -0.01,-0.043 -0.0164,-0.064 l -13.57142,-41.42857 c -0.0451,-0.13764 -0.14764,-0.24896 -0.28112,-0.30517 L 424.0224,394.86672 413.35115,326.57073 c -0.0169,-0.10827 -0.0689,-0.20798 -0.14806,-0.2838 l -17.14285,-16.42857 c -0.2675,-0.25635 -0.71116,-0.14289 -0.82274,0.21042 l -4.28572,13.57143 c -0.0194,0.0615 -0.0267,0.12616 -0.0216,0.19044 l 1.41016,17.62698 -15.43573,15.43573 -22.69607,3.54626 c -0.0749,0.0117 -0.14613,0.0403 -0.20834,0.0836 l -16.42857,11.42857 c -0.22134,0.15397 -0.28073,0.45571 -0.13426,0.68208 l 23.45845,36.25396 -7.01948,32.28961 -37.42309,2.82438 -28.5099,-4.98924 c -0.32322,-0.0566 -0.61239,0.20829 -0.58436,0.53522 l 2.14286,25 c 0.013,0.15155 0.0943,0.28895 0.22082,0.37333 l 10.48716,6.99144 -0.70537,42.32198 -34.0675,22.71166 c -0.21233,0.14155 -0.28399,0.42031 -0.16624,0.64674 l 9.28569,17.85712 c 0.10221,0.19655 0.32157,0.30241 0.53904,0.26013 l 25.56556,-4.97108 30.57448,12.79862 c 0.078,0.0327 0.16305,0.045 0.24713,0.0359 l 30.89422,-3.35807 -28.25018,19.50608 -49.84807,0.71211 c -0.22851,0.003 -0.42572,0.16104 -0.47905,0.38326 l -4.25473,17.72805 -44.90905,47.76042 c -0.25652,0.27281 -0.13314,0.7204 0.22693,0.82328 l 14.99997,4.2857 c 0.11158,0.0319 0.23077,0.024 0.33715,-0.0224 l 27.72866,-12.08685 31.2897,4.26678 c 0.13331,0.0182 0.26833,-0.0181 0.37453,-0.10074 l 19.16803,-14.90847 139.8514,-11.41644 c 0.0993,-0.008 0.19388,-0.0457 0.27167,-0.10791 l 17.85714,-14.28572 c 0.14427,-0.11542 0.21313,-0.30098 0.17909,-0.48257 l -2.14286,-11.42857 c -0.0345,-0.18382 -0.16864,-0.33303 -0.34777,-0.38677 l -21.42857,-6.42857 z"
       id="path4197"
       inkscape:connector-curvature="0"
       sodipodi:nodetypes="cccccccccccssccssscccccscssccccccccccsssccccsscccssccccccsscccsccccccscccsccccccccscccsscsccsssscccccsscsscccsscssscsccc" />
    <path
       style="fill:#000000;fill-rule:evenodd;stroke:none;stroke-width:42.51968384;stroke-linecap:butt;stroke-linejoin:miter;stroke-miterlimit:4;stroke-dasharray:none;stroke-opacity:1"
       d="M 614.54688 41.892578 C 589.02365 44.293539 563.4883 46.632674 537.97266 49.072266 C 537.32828 49.505463 537.76293 50.499819 537.56331 51.144007 C 536.89496 62.074895 536.16515 73.007988 535.53516 83.9375 C 539.50526 94.00743 543.49359 104.07114 547.4707 114.13867 C 541.66545 115.0947 535.82883 115.946 530.04297 116.9668 C 529.49016 117.57664 529.84994 118.59702 529.62982 119.34862 C 528.50902 132.06442 527.33148 144.78042 526.24609 157.49609 C 528.4624 160.32828 530.90158 163.02583 533.20216 165.80706 C 534.4744 166.5975 533.62826 167.75208 533.24509 168.82709 C 530.20199 176.91146 527.10029 184.97989 524.09375 193.07422 C 524.53124 194.22829 525.44008 195.20864 526.03658 196.30339 C 528.80418 200.6037 531.49111 204.97249 534.30859 209.23047 C 535.03666 209.50699 535.76215 208.7601 536.47984 208.65401 C 542.00479 206.60723 547.52974 204.56045 553.05469 202.51367 C 548.17014 216.5161 543.22668 230.50432 538.37891 244.51562 C 539.57881 255.77715 540.74571 267.04898 541.99023 278.30273 C 542.43837 278.95762 543.43958 278.44191 544.09448 278.60547 C 549.32361 278.57901 554.56646 278.65811 559.78711 278.56641 C 570.27072 273.44253 580.75317 268.31622 591.23633 263.19141 C 591.23633 270.95833 591.23633 278.72526 591.23633 286.49219 C 583.16058 296.01608 575.03474 305.50521 566.99023 315.05078 C 566.85955 315.83406 567.79753 316.36321 568.06941 317.03996 C 570.87807 321.09768 573.60661 325.22647 576.46484 329.24023 C 577.22867 329.50531 577.87943 328.59546 578.58643 328.41028 C 596.16584 319.15238 613.75448 309.91046 631.32812 300.64258 C 637.71159 295.67773 644.09505 290.71289 650.47852 285.74805 C 657.1512 285.72167 663.838 285.80058 670.50195 285.70898 C 671.54318 284.50258 672.29229 283.00761 673.22941 281.69886 C 676.93103 276.00098 680.72951 270.34998 684.37109 264.62305 C 684.38936 260.57762 684.37367 256.53047 684.37891 252.48438 C 686.50806 246.96939 688.74336 241.48025 690.80664 235.94922 C 690.44632 235.06872 689.46227 234.53382 688.89266 233.77179 C 683.23056 227.93073 677.63523 222.00569 671.93164 216.2168 C 666.75967 215.91753 661.5653 215.75487 656.38477 215.50781 C 660.24381 211.24029 664.02196 206.8795 667.9314 202.67008 C 670.75779 200.75287 673.65676 198.91796 676.43945 196.95117 C 676.71434 196.18789 675.79202 195.53471 675.60752 194.82775 C 673.78522 191.38582 671.96292 187.94389 670.14062 184.50195 C 678.21176 163.5695 686.34399 142.65396 694.37695 121.71094 C 693.80656 120.28907 692.83565 118.99992 692.12332 117.62557 C 688.27465 110.99417 684.51074 104.29842 680.60938 97.707031 C 679.10593 97.406641 677.49466 97.51656 675.95337 97.362074 C 660.22188 96.503936 644.48749 95.581915 628.75781 94.763672 C 622.46114 97.765279 616.18238 100.81421 609.89258 103.83398 C 607.83659 97.4375 605.7806 91.041016 603.72461 84.644531 C 614.1611 72.287438 624.64723 59.964121 635.05273 47.585938 C 635.28229 46.701474 633.98477 46.813705 633.4734 46.59589 C 627.16339 45.037414 620.86294 43.405317 614.54688 41.892578 z M 633.69141 47.681641 C 623.36884 59.904617 612.99666 72.093827 602.70508 84.337891 C 602.66033 85.285074 603.28993 86.192162 603.47079 87.123985 C 605.39798 93.029802 607.22632 98.982876 609.21484 104.85938 C 609.87957 105.38731 610.62831 104.39683 611.29289 104.27054 C 617.1881 101.43166 623.08331 98.592785 628.97852 95.753906 C 645.98893 96.699219 662.99935 97.644531 680.00977 98.589844 C 684.44857 106.29948 688.88737 114.00911 693.32617 121.71875 C 685.25575 142.64779 677.12896 163.56117 669.09375 184.5 C 669.81117 186.25393 670.87438 187.89975 671.71616 189.61457 C 672.93317 191.91362 674.15018 194.21267 675.36719 196.51172 C 672.57848 198.42307 669.67721 200.2015 666.95623 202.19287 C 662.92702 206.73668 658.80694 211.21872 654.83398 215.80078 C 654.65677 216.67795 655.86822 216.47341 656.38096 216.50868 C 661.4252 216.72844 666.46943 216.94821 671.51367 217.16797 C 677.58398 223.47135 683.6543 229.77474 689.72461 236.07812 C 687.62115 241.51857 685.42479 246.93574 683.37891 252.39062 C 683.37891 256.38867 683.37891 260.38672 683.37891 264.38477 C 678.93164 271.17253 674.48437 277.96029 670.03711 284.74805 C 663.39762 284.77432 656.74398 284.69565 650.11328 284.78711 C 643.64154 289.77048 637.21015 294.81671 630.75391 299.82422 C 630.21178 300.11098 628.97165 300.76119 628.16559 301.18647 C 611.07589 310.18096 593.98619 319.17544 576.89648 328.16992 C 573.95703 323.8737 571.01758 319.57747 568.07812 315.28125 C 576.11091 305.80749 584.19377 296.36849 592.19531 286.87305 C 592.29144 279.26203 592.20867 271.62766 592.23633 264.00771 C 592.06304 263.36505 592.64348 262.2018 591.82031 261.89844 C 590.6246 262.20261 589.54946 262.99708 588.39526 263.46697 C 578.75569 268.1798 569.11613 272.89264 559.47656 277.60547 C 553.95117 277.60547 548.42578 277.60547 542.90039 277.60547 C 541.72917 266.60091 540.55794 255.59635 539.38672 244.5918 C 544.37736 230.2913 549.42198 216.00416 554.37891 201.69531 C 554.31863 200.8504 553.28494 201.28691 552.84797 201.52455 C 546.83159 203.75335 540.81521 205.98214 534.79883 208.21094 C 531.58203 203.15625 528.36523 198.10156 525.14844 193.04688 C 528.4555 184.26494 531.82135 175.49879 535.0918 166.70703 C 534.83995 165.84452 533.91905 165.29295 533.43955 164.53932 C 531.37702 162.10173 529.31449 159.66415 527.25195 157.22656 C 528.42448 144.0918 529.59701 130.95703 530.76953 117.82227 C 536.65224 116.85394 542.56658 115.99006 548.42969 114.95703 C 549.05593 114.41496 548.1705 113.6035 548.09124 112.98957 C 544.23661 103.23914 540.38198 93.488712 536.52734 83.738281 C 537.23047 72.489583 537.93359 61.240885 538.63672 49.992188 C 563.94271 47.626953 589.2487 45.261719 614.55469 42.896484 C 620.93359 44.491536 627.3125 46.086589 633.69141 47.681641 z "
       id="path4202"
       inkscape:connector-curvature="0" />
    <path
       style="fill:#000000;fill-rule:evenodd;stroke:none;stroke-width:3.54330709;stroke-linecap:butt;stroke-linejoin:miter;stroke-opacity:1;stroke-miterlimit:4;stroke-dasharray:none"
       d="m 72.405274,336.43388 -19.285715,40.71428 a 0.5,0.5 0 0 0 0.314508,0.6948 l 24.72233,7.06353 1.950775,7.8031 -52.283471,12.7176 -19.9132917,-2.13356 a 0.5,0.5 0 0 0 -0.553037,0.48201 l -0.7142857,23.57142 a 0.5,0.5 0 0 0 0.03116,0.18951 l 11.4285647,30.71427 a 0.49998669,0.50006077 4.6642405 0 0 0.220548,0.25977 l 19.57023,11.18299 -16.901608,30.28205 a 0.49994164,0.50014237 61.772714 0 0 -0.06194,0.20535 l -1.420845,18.47099 -13.525411,26.33896 a 0.5,0.5 0 0 0 -0.040288,0.34967 l 9.9999998,40 a 0.49999844,0.50008524 83.657141 0 0 0.473373,0.37859 l 60.714159,1.42857 a 0.50032286,0.49990006 30.388523 0 0 0.265818,-0.0692 l 83.57143,-49.28572 a 0.5,0.5 0 0 0 0.24247,-0.37128 l 10.93748,-91.40984 a 0.5,0.5 0 0 0 -0.34828,-0.53694 l -22.99617,-7.13547 -17.64039,-13.40669 -4.96065,-22.67728 a 0.50001248,0.50000944 0 0 0 -0.86944,-0.21699 l -11.82144,13.90757 -30.045696,-25.15455 c 4.85541,-10.99059 10.15858,-20.03462 14.53454,-27.38731 4.400396,-7.39376 7.918616,-13.15851 9.015916,-17.43666 0.55374,-2.15897 0.5195,-4.03519 -0.41628,-5.57699 -0.93161,-1.53491 -2.68609,-2.62005 -5.30859,-3.35991 -5.228805,-1.47516 -14.26713,-1.67047 -28.462342,-0.88185 z m 0.479604,0.71327 c 14.219296,-0.78996 23.092987,-0.57674 28.135352,0.84582 2.51308,0.709 3.98398,1.69502 4.72524,2.91633 0.73709,1.21442 0.82322,2.77947 0.30251,4.80965 -1.05161,4.10007 -4.46143,9.70474 -8.906601,17.17372 -4.424145,7.43365 -9.819243,16.63395 -14.74195,27.83972 a 0.49999574,0.50020916 31.822753 0 0 0.136746,0.58462 l 30.714245,25.71426 a 0.50004238,0.5 40.150446 0 0 0.70197,-0.0595 l 11.48914,-13.51663 4.7843,21.87109 a 0.5,0.5 0 0 0 0.18591,0.29123 l 17.85714,13.57142 a 0.5,0.5 0 0 0 0.15436,0.0795 l 22.68259,7.03817 -10.85861,90.7507 L 77.011863,586.1447 16.821234,584.72845 6.9592453,545.28049 20.444784,519.01918 a 0.5,0.5 0 0 0 0.05374,-0.19005 l 1.420151,-18.46197 17.08934,-30.6184 a 0.5,0.50001865 29.456233 0 0 -0.188521,-0.67782 L 18.976841,457.73228 7.6455916,427.27954 l 0.694973,-22.9341 19.4633014,2.08534 a 0.50011967,0.49994081 41.212447 0 0 0.171453,-0.0113 l 52.857143,-12.85714 a 0.50000461,0.5 0 0 0 0.366894,-0.6071 l -2.142857,-8.57143 a 0.5,0.5 0 0 0 -0.34771,-0.35949 l -24.433098,-6.98089 19.033321,-40.18145 z"
       id="path4206"
       inkscape:path-effect="#path-effect4208"
       inkscape:original-d="m 72.857143,336.64792 -19.285715,40.71428 25,7.14286 2.142858,8.57143 -52.857143,12.85714 -20.0000001,-2.14285 -0.7142857,23.57142 11.4285708,30.71429 20,11.42857 L 21.428571,500.21935 20,518.79078 6.4285715,545.21935 l 9.9999995,40 60.714286,1.42857 83.571433,-49.28572 10.93748,-91.40984 -23.08035,-7.16159 -17.85714,-13.57142 -5,-22.85715 -12.14286,14.28572 -30.714277,-25.71429 c 19.638087,-44.70312 46.829017,-57.44288 -10,-54.28571 z"
       inkscape:connector-curvature="0"
       sodipodi:nodetypes="cccccccccccccccccccccc" />
    <path
       style="fill:#000000;fill-rule:evenodd;stroke:none;stroke-width:0.2;stroke-linecap:butt;stroke-linejoin:miter;stroke-opacity:1;stroke-miterlimit:4;stroke-dasharray:none"
       d="m 87.591173,389.72645 28.497027,-57.70647 24.01181,-12.00591 46.78634,3.54442 21.1893,26.83978 0.71022,29.11898 a 0.5,0.5 0 0 0 0.0179,0.12077 l 5.68778,20.61821 -3.5228,28.18246 -31.01622,12.68845 -30.45367,-6.37402 -14.76096,-11.24645 -5.67661,-27.67349 a 0.50001051,0.49999888 60.341139 0 0 -0.85978,-0.23589 L 114.23455,410.9609 87.458921,389.11763 Z m -0.764378,0.16604 27.142865,22.14286 a 0.5,0.5 0 0 0 0.68603,-0.0511 l 13.6237,-14.98608 5.51652,26.89305 a 0.49998715,0.50006214 12.852644 0 0 0.18679,0.29727 l 15,11.42857 a 0.5,0.5 0 0 0 0.20059,0.0917 l 30.71428,6.42857 a 0.5,0.5 0 0 0 0.29175,-0.0266 l 31.42858,-12.85714 a 0.5,0.5 0 0 0 0.30682,-0.40075 l 3.57142,-28.57143 a 0.5,0.5 0 0 0 -0.0141,-0.19498 l -5.69793,-20.65501 -0.71279,-29.22421 a 0.4999905,0.50003804 25.154147 0 0 -0.10741,-0.29764 L 187.5353,322.76667 a 0.49999371,0.50004131 73.022925 0 0 -0.35468,-0.18875 l -47.14283,-3.57143 a 0.50008192,0.49997365 33.878304 0 0 -0.2614,0.0514 l -24.28571,12.14286 a 0.5,0.5 0 0 0 -0.22471,0.22582 l -28.571427,57.85714 z"
       id="path4210"
       inkscape:path-effect="#path-effect4212"
       inkscape:original-d="M 87.142858,389.50506 115.71429,331.64792 140,319.50506 l 47.14286,3.57143 21.42857,27.14286 0.71429,29.28571 L 215,400.21935 211.42858,428.79078 180,441.64792 l -30.71428,-6.42857 -15,-11.42857 -5.71429,-27.85715 -14.28571,15.71429 z"
       inkscape:connector-curvature="0" />
    <path
       style="fill:url(#linearGradient9368);fill-rule:evenodd;stroke:#000000;stroke-width:8.07874012;stroke-linecap:butt;stroke-linejoin:miter;stroke-miterlimit:4;stroke-dasharray:none;stroke-opacity:1;fill-opacity:1"
       d="m -335,273.79078 -12.14286,-14.28572 25.71429,-30 -1.42857,-23.57143 -30,15.71429 -16.42858,2.14286 -6.42857,-33.57143 15.71429,-45 -19.28572,9.28571 L -390,138.07649 l 10.71428,-27.85714 -8.57142,-9.28572 5.71428,-37.85714 21.42857,-4.28571 -17.14285,-31.428576 3.57142,-31.428572 73.57143,-7.857143 25,5.714286 -33.57143,37.857143 6.42858,20.714282 17.14285,-9.285711 55.71429,2.857141 10.71429,21.42857 -23.57143,60.71429 2.85714,16.42857 -15,15 12.85714,5 c 0,0 25.71429,16.42857 23.57143,17.14286 -2.14286,0.71428 -10.71428,17.14286 -10.71428,17.14286 l 1.42857,10.71428 -10.71429,22.85714 -24.28571,-1.42857 z"
       id="path4232"
       inkscape:connector-curvature="0"
       inkscape:export-xdpi="90"
       inkscape:export-ydpi="90"
       inkscape:export-filename="C:\Users\Petri\Documents\BrexitSimulator\Assets\Materials\s.png" />
    <path
       style="color:#000000;font-style:normal;font-variant:normal;font-weight:normal;font-stretch:normal;font-size:medium;line-height:normal;font-family:sans-serif;text-indent:0;text-align:start;text-decoration:none;text-decoration-line:none;text-decoration-style:solid;text-decoration-color:#000000;letter-spacing:normal;word-spacing:normal;text-transform:none;direction:ltr;block-progression:tb;writing-mode:lr-tb;baseline-shift:baseline;text-anchor:start;white-space:normal;clip-rule:nonzero;display:inline;overflow:visible;visibility:visible;opacity:1;isolation:auto;mix-blend-mode:normal;color-interpolation:sRGB;color-interpolation-filters:linearRGB;solid-color:#000000;solid-opacity:1;fill:#000000;fill-opacity:1;fill-rule:evenodd;stroke:none;stroke-width:8.07874012;stroke-linecap:butt;stroke-linejoin:miter;stroke-miterlimit:4;stroke-dasharray:none;stroke-dashoffset:0;stroke-opacity:1;color-rendering:auto;image-rendering:auto;shape-rendering:auto;text-rendering:auto;enable-background:accumulate"
       d="m -203.96094,401.93945 c -2.36239,0 -3.15451,0.9853 -3.99023,1.69727 -0.83573,0.71196 -1.56247,1.50862 -2.31641,2.4082 -1.50788,1.79917 -3.06775,4.003 -4.53711,6.19531 -2.93872,4.38464 -5.47656,8.7168 -5.47656,8.7168 l -0.55469,0.94531 0,15.47852 -12.36523,16.69531 -24.11914,1.37695 -21.01758,12.79493 27.16797,37.73437 -7.35156,29.40625 -37.56055,0 c 0.27502,0 -2.20526,-0.39634 -4.77735,-1.16797 -2.57208,-0.77162 -5.69866,-1.8277 -8.69921,-2.88672 -6.00111,-2.11803 -11.49414,-4.24414 -11.49414,-4.24414 l -6.11524,-2.36718 3.69727,37.89062 9.80664,5.60547 c 0.0297,1.92408 0.16001,10.11544 0.24023,20.70508 0.0446,5.88219 0.0664,11.89605 0.0332,16.68164 -0.0166,2.39279 -0.0485,4.48033 -0.0957,6.06836 -0.0357,1.20097 -0.0861,1.72348 -0.11523,2.12109 -0.0795,0.16194 -0.16993,0.38385 -0.44727,0.6582 -0.69967,0.69216 -1.85906,1.67039 -3.26953,2.74805 -2.82094,2.15533 -6.66926,4.75634 -10.50391,7.22461 -7.66928,4.93655 -15.28906,9.36719 -15.28906,9.36719 l -3.27929,1.90625 1.69531,3.39258 c 0,0 1.64959,3.30081 3.68945,6.82422 1.01993,1.7617 2.13425,3.58404 3.26563,5.16796 1.13137,1.58393 1.79662,2.92956 4.13671,4.09961 1.7421,0.87105 2.70249,0.66958 3.80274,0.61719 1.10025,-0.0524 2.24169,-0.21073 3.48242,-0.42969 2.48147,-0.4379 5.32185,-1.13048 8.0625,-1.86132 4.73668,-1.26312 8.00284,-2.31757 9.11914,-2.67188 l 33.85938,13.40234 13.82226,-1.03711 -18.68554,12.18555 -51.26954,0 -4.76562,19.86328 -46.68164,47.44727 20.83008,10.41601 1.65039,-0.61914 27.62695,-10.36132 33.74414,4.40234 21.07813,-19.625 139.64453,-11.40039 20.10937,-13.40625 -2.09961,-15.74219 -12.61133,-4.05273 32.8711,-15.30274 23.583982,-27.51367 L -90.462891,604 l -46.763669,-0.67773 4.61328,-16.72266 -21.44727,-82.08594 -30.21093,-15.45703 c -0.0751,-2.096 -0.53318,-14.87763 -1.06641,-30.08398 -0.28763,-8.20243 -0.5754,-16.49348 -0.79102,-22.91016 -0.21562,-6.41668 -0.35742,-11.37485 -0.35742,-11.54688 0,-1.60325 -0.39377,-2.27269 -0.77539,-3.18164 -0.38162,-0.90894 -0.86213,-1.85536 -1.42773,-2.87695 -1.13121,-2.04319 -2.60146,-4.35825 -4.17578,-6.60156 -1.57433,-2.24331 -3.2325,-4.39347 -4.81836,-6.11719 -0.79294,-0.86186 -1.5536,-1.61619 -2.41016,-2.27734 -0.85656,-0.66115 -1.66289,-1.52149 -3.86719,-1.52149 z m 0.10938,9.05469 c 0.0912,0.0951 0.12727,0.11117 0.22265,0.21484 1.20087,1.30527 2.72336,3.25369 4.15039,5.28711 1.42704,2.03343 2.77946,4.17492 3.72071,5.875 0.47062,0.85005 0.83891,1.59646 1.04687,2.0918 0.20797,0.49534 0.14453,0.9417 0.14453,0.0527 0,1.25655 0.14741,5.39415 0.36329,11.81836 0.21587,6.42422 0.50331,14.7174 0.79101,22.92188 0.5754,16.40896 1.15039,32.46094 1.15039,32.46094 l 0.0859,2.37109 31.21484,15.96875 19.98242,76.48633 -6.8164,24.70508 51.808592,0.75195 10.251953,25.93555 -19.273435,22.48633 -49.98438,23.26757 27.38672,8.80274 0.75781,5.6875 -14.17578,9.45117 -140.35547,11.45703 -20.34961,18.94727 -31.97265,-4.16993 -27.86524,10.44922 -7.74023,-3.87109 40.46289,-41.125 3.80273,-15.84961 47.30274,0 33.86328,-22.08594 -2.50977,-7.41015 -27.64453,2.07226 -34.76758,-13.76172 -1.3789,0.44336 c 0,0 -4.92913,1.58306 -10.16211,2.97852 -2.61649,0.69773 -5.31071,1.34332 -7.38281,1.70898 -0.95476,0.16849 -1.72437,0.25735 -2.27149,0.29297 -0.30496,-0.302 -0.76516,-0.74623 -1.17383,-1.31836 -0.87755,-1.22858 -1.90525,-2.88837 -2.8496,-4.51953 -0.92754,-1.6021 -1.0708,-1.95606 -1.69532,-3.13867 2.32929,-1.37153 6.07942,-3.5323 12.26172,-7.51172 3.93321,-2.53172 7.89823,-5.19941 11.03711,-7.59766 1.56944,-1.19912 2.92819,-2.3191 4.04492,-3.42382 1.11673,-1.10473 2.25949,-1.764 2.69727,-4.39063 0.19249,-1.15492 0.20937,-2.19935 0.25976,-3.89258 0.0504,-1.69322 0.0808,-3.82332 0.0977,-6.25195 0.0337,-4.85727 0.0115,-10.89726 -0.0332,-16.80078 -0.0894,-11.80704 -0.26953,-23.06836 -0.26953,-23.06836 l -0.0352,-2.30078 -10.18555,-5.82031 -2.02929,-20.79297 c 2.13277,0.79843 2.67391,1.03346 5.61718,2.07226 3.07088,1.08384 6.2833,2.1723 9.06836,3.00781 2.78506,0.83552 4.67977,1.50977 7.09766,1.50977 l 43.86914,0 9.79101,-39.16406 -24.25976,-33.69531 11.83789,-7.20508 25.88086,-1.47852 16.20508,-21.8789 0,-15.88672 c 0.44434,-0.75122 2.19293,-3.73489 4.66406,-7.42188 1.38253,-2.06276 2.85083,-4.11176 4.01758,-5.5039 0.0964,-0.11506 0.13243,-0.13478 0.22461,-0.24024 z"
       id="path4234"
       inkscape:connector-curvature="0"
       inkscape:export-xdpi="90"
       inkscape:export-ydpi="90" />
    <path
       style="fill:url(#linearGradient9392);fill-rule:evenodd;stroke:#000000;stroke-width:4.53543307;stroke-linecap:butt;stroke-linejoin:miter;stroke-miterlimit:4;stroke-dasharray:none;stroke-opacity:1;fill-opacity:1"
       d="m -683.87327,772.54995 c 7.07106,-1.01015 81.82235,-49.49747 81.82235,-49.49747 l 13.13199,-92.93404 -25.25382,-4.04061 -17.17259,-16.16244 -4.04061,-20.20305 -14.14214,13.13198 -28.28427,-26.26396 21.2132,-47.47717 -8.08122,-9.09138 -23.2335,0 -20.20305,41.41626 27.27411,10.10152 -1.01015,7.07107 -52.52793,12.12183 -21.2132,-1.01015 0,23.23351 12.12183,28.28427 21.2132,17.17259 -17.17259,28.28427 -1.01016,15.15229 -17.17259,28.28427 10.10153,40.40611 z"
       id="path4236"
       inkscape:connector-curvature="0"
       inkscape:export-xdpi="90"
       inkscape:export-ydpi="90"
       inkscape:export-filename="C:\Users\Petri\Documents\BrexitSimulator\Assets\Materials\i.png" />
    <path
       style="fill:url(#linearGradient9360);fill-rule:evenodd;stroke:#000000;stroke-width:8.07874012;stroke-linecap:butt;stroke-linejoin:miter;stroke-miterlimit:4;stroke-dasharray:none;stroke-opacity:1;fill-opacity:1"
       d="m -637.40625,475.5651 14.14213,-15.15229 6.06092,29.29442 15.15228,11.11168 c 0,0 20.20306,5.05076 29.29443,6.06091 9.09137,1.01016 34.34518,-12.12183 34.34518,-12.12183 l 0,-30.30457 -4.04061,-18.18275 -1.01015,-32.32488 -17.17259,-25.25381 -52.52793,-3.03046 -20.20305,10.10152 -25.25382,57.5787 z"
       id="path4238"
       inkscape:connector-curvature="0"
       inkscape:export-xdpi="90"
       inkscape:export-ydpi="90" />
    <path
       style="fill-rule:nonzero;stroke:#000000;stroke-width:15.16535433;stroke-linecap:butt;stroke-linejoin:miter;stroke-miterlimit:4;stroke-dasharray:none;stroke-opacity:1;fill-opacity:1;fill:url(#linearGradient7870)"
       d="m 248.49753,959.42817 62.62945,-40.4061 0,-68.69038 64.64977,-66.67006 109.09647,-30.30458 117.1777,-44.44671 107.07617,-48.48732 6.06091,290.92393 z"
       id="path4240"
       inkscape:connector-curvature="0"
       inkscape:export-xdpi="90"
       inkscape:export-ydpi="90" />
    <path
       style="opacity:1;fill:url(#linearGradient9434);fill-opacity:1;fill-rule:nonzero;stroke:url(#linearGradient9446);stroke-width:3.54330709;stroke-miterlimit:4;stroke-dasharray:none;stroke-opacity:1"
       d="m -365.21782,742.14876 -3.44489,-1.76785 10.10317,-10.45541 c 5.55674,-5.75047 14.54805,-14.88281 19.98068,-20.29409 l 9.87751,-9.83867 1.88418,-7.96526 1.88419,-7.96526 23.53073,0 23.53074,0 16.3856,-10.65716 c 9.01208,-5.86144 16.69609,-10.95302 17.07557,-11.31462 0.58143,-0.55402 0.49343,-1.24128 -0.55944,-4.36886 -0.77986,-2.3166 -1.5137,-3.69411 -1.95266,-3.66538 -0.38678,0.0253 -6.72629,0.45133 -14.08777,0.94672 l -13.38452,0.90069 -17.22096,-6.84748 -17.22097,-6.84747 -4.53343,1.4213 c -2.49338,0.78172 -7.21469,2.05486 -10.49181,2.82921 l -5.95838,1.4079 -0.91465,-1.21257 c -1.1845,-1.57033 -3.88937,-6.06295 -4.23797,-7.039 -0.18926,-0.52991 0.75211,-1.34774 3.13221,-2.72112 7.31679,-4.222 19.51725,-12.6337 22.70629,-15.65501 3.20737,-3.03868 3.36976,-3.30736 3.72543,-6.16385 0.48634,-3.90592 0.54138,-20.82431 0.12362,-37.99998 l -0.33352,-13.71168 -4.94065,-2.79742 c -4.85347,-2.74806 -4.9457,-2.83509 -5.22665,-4.93193 -0.47422,-3.53928 -1.78803,-17.71225 -1.65429,-17.84599 0.0685,-0.0685 4.21337,1.27766 9.21078,2.99152 l 9.08621,3.11609 23.32295,0.16559 c 22.1408,0.15719 23.34676,0.11898 23.79275,-0.75391 0.25838,-0.50571 2.59066,-9.45583 5.18285,-19.88914 l 4.71305,-18.96965 -11.74376,-16.30083 c -6.45906,-8.96545 -11.84127,-16.56629 -11.96045,-16.89076 -0.12019,-0.32719 2.31216,-2.10364 5.46131,-3.98862 l 5.67801,-3.39868 12.85773,-0.77174 c 7.07175,-0.42445 13.02604,-0.94061 13.23174,-1.14701 0.20571,-0.20639 3.90886,-5.14252 8.22921,-10.96918 l 7.85519,-10.59392 0,-7.96415 0,-7.96415 2.14657,-3.42358 c 3.60704,-5.75287 6.16174,-9.20511 6.69227,-9.04345 0.66028,0.2012 5.91928,7.50975 7.5507,10.49336 l 1.27208,2.32645 1.01021,29.7459 c 0.55562,16.36024 1.14762,32.05071 1.31556,34.86772 l 0.30534,5.12182 15.54179,7.95022 15.54179,7.95021 9.96053,38.1932 9.96052,38.1932 -3.3238,11.98316 c -1.82809,6.59073 -3.3238,12.21602 -3.3238,12.50063 0,0.332 2.94185,0.51777 8.20749,0.51827 4.51412,4.2e-4 16.16244,0.15038 25.88516,0.33323 l 17.677671,0.33246 4.692694,11.91487 c 2.58098,6.55317 4.803887,12.36943 4.939788,12.92501 0.18555,0.75856 -2.115426,3.76109 -9.238381,12.05512 l -9.485472,11.04496 -24.65954,11.47756 c -13.56274,6.31266 -24.66266,11.68386 -24.66647,11.93601 -0.004,0.25214 6.01267,2.37911 13.36996,4.72659 l 13.37688,4.26814 0.32377,2.44065 c 0.17807,1.34236 0.20367,2.63496 0.0569,2.87244 -0.14678,0.23749 -3.28075,2.46767 -6.96439,4.95596 l -6.69753,4.52416 -4.04061,0.31193 c -8.92959,0.68934 -134.42627,10.95157 -135.44307,11.07557 -0.60411,0.0737 -5.63697,4.37061 -11.25457,9.6089 -8.21554,7.66081 -10.37625,9.42766 -11.28158,9.22517 -1.90048,-0.42505 -28.53524,-3.80105 -29.98825,-3.80105 -0.75318,0 -7.42247,2.27284 -14.82065,5.05076 -7.39818,2.77792 -13.54987,5.03959 -13.67042,5.02592 -0.12055,-0.0137 -1.76938,-0.82037 -3.66407,-1.79269 z"
       id="path9418"
       inkscape:connector-curvature="0"
       inkscape:export-xdpi="90"
       inkscape:export-ydpi="90" />
  </g>
</svg>
